<svg xmlns="http://www.w3.org/2000/svg" viewBox="0 0 404 372"><defs><style>.cls-1{fill:#2f393c;}.cls-2{fill:#fff;}</style></defs><g id="Layer_2" data-name="Layer 2"><g id="Layer_1-2" data-name="Layer 1"><rect class="cls-1" width="404" height="372"/><path class="cls-2" d="M264.15,107.4c-12.64-.86-23.46,2.93-34.57,4.2-22,2.51-44,5.83-65.76,9.82-19.64,3.6-39.58,4.69-59.2,8.69-10.71,2.18-22.15,3.43-33.22,4.87a322.71,322.71,0,0,1-35.09,3c-4.59.11-6.75-.87-6.32-6,.46-5.35-1.51-11.65.72-15.89,2.59-4.94,9.69-1.88,14.75-2.72,23.18-3.84,46.54-6.59,69.67-10.69,24.73-4.37,49.58-8,74.36-11.88,18.47-2.88,37-6.42,55.79-7.52,6.93-.4,13.44-3.15,20.63-3.4,34.27-1.17,59.23,39.24,40.72,66-1.65,2.38-2.8,5.59,1.1,9.42C321.84,169.2,327.32,186.1,319.2,205c-7.16,16.63-19.91,26-38.75,28.21-28.06,3.32-56,8.1-83.86,12.64-7.84,1.28-11.19-.84-9.86-8.91.05-.28,0-.58,0-.85.89-4.86-4.4-11.62-2-13.18,5.06-3.22,12.05-3.72,18.35-4.65,25.34-3.74,50.75-7,76.07-10.87a19.46,19.46,0,0,0,16.42-22.56c-1.61-10-11.48-16-23.1-14.51-29.07,3.72-58,8.23-87.09,12.18-17.3,2.36-34.86,4.22-52,8.4-15,3.66-20-.27-21.35-15.06-.56-5.94.93-8.11,7.36-9C148,163,176.4,158.31,204.86,154q31.57-4.81,63.16-9.52c7.8-1.16,16.05-8.23,17.36-15,1.67-8.55-2.14-16.44-10.15-21.1C271.27,106.08,266.94,108.21,264.15,107.4Z"/><path class="cls-2" d="M169.71,291.25c-.05-12.37,7.65-19.88,20.37-19.85s21.18,7.81,20.6,19.78c-.56,11.6-7.9,20.4-21,20C177.66,310.78,169.76,303.18,169.71,291.25Z"/><path class="cls-2" d="M309.37,276.28c0,12.22-7.78,19.72-20.39,19.75-12.22,0-18.5-7.21-18.9-20.33-.37-11.95,7.81-19.4,19.09-20C298.28,255.13,311.48,264,309.37,276.28Z"/></g></g></svg>