<svg xmlns="http://www.w3.org/2000/svg" viewBox="0 0 906.31 231.26"><defs><style>.cls-1{fill:#2f393c;}.cls-2{fill:#dcd7c9;}</style></defs><g id="Layer_2" data-name="Layer 2"><g id="Layer_1-2" data-name="Layer 1"><path class="cls-1" d="M234.53,27.48c-12.64-.86-23.46,2.93-34.57,4.2-22,2.51-44,5.84-65.77,9.82C114.55,45.1,94.62,46.19,75,50.19c-10.72,2.19-22.16,3.43-33.22,4.88a328.24,328.24,0,0,1-35.09,3c-4.6.1-6.76-.88-6.32-6,.46-5.34-1.51-11.64.71-15.89,2.6-4.94,9.7-1.87,14.75-2.71C39,29.67,62.38,26.92,85.51,22.83c24.72-4.37,49.58-8,74.35-11.89,18.48-2.87,37-6.42,55.8-7.51C222.59,3,229.1.27,236.29,0,270.55-1.15,295.52,39.26,277,66c-1.65,2.38-2.81,5.58,1.1,9.41,14.11,13.85,19.59,30.75,11.46,49.64-7.15,16.64-19.9,26-38.74,28.22-28.06,3.32-56,8.09-83.86,12.64-7.85,1.28-11.2-.85-9.86-8.92,0-.28,0-.57,0-.85.88-4.85-4.4-11.62-2-13.17,5.06-3.23,12.06-3.72,18.36-4.65,25.34-3.74,50.75-7,76.07-10.88A19.46,19.46,0,0,0,266,104.9c-1.6-10.05-11.48-16-23.09-14.51-29.08,3.73-58.06,8.23-87.1,12.19-17.3,2.35-34.85,4.22-52,8.4-15,3.65-20-.28-21.35-15.07-.56-5.94.93-8.11,7.35-9,28.53-3.88,56.94-8.53,85.4-12.86q31.57-4.8,63.15-9.51c7.8-1.17,16.05-8.24,17.37-15,1.66-8.55-2.14-16.44-10.15-21.1C241.64,26.16,237.32,28.3,234.53,27.48Z"/><path class="cls-2" d="M400.6,75.13c12.85,8,17.59,17.88,14.49,28.68-3.33,11.57-13.4,18.62-27.1,18.74-11.91.11-23.82-.2-35.72.14-5.69.16-8-1.3-7.94-7.49.31-26.29.27-52.59,0-78.89-.05-5.6,1.82-7.41,7.34-7.22,10.2.35,20.41.05,30.62.1,14.65.08,26.06,6.45,30,16.63C417.21,58.69,410.71,67.33,400.6,75.13ZM375,107.21c3.69,0,6.53.18,9.35,0,9.29-.72,13.62-7.16,10.83-15.92C393,84.56,369,79.38,364.2,84.57c-.19.2-.47.42-.49.66-.77,6.74-1.94,13.89.39,20.07C365.71,109.59,371.82,106.38,375,107.21ZM376.38,46c-13.14,0-13.21,0-13.15,9.64C363.31,69.78,361.66,68,376,68.16c1.7,0,3.4.09,5.09,0,8.84-.7,13.33-5,12.65-12.46-.72-8-6.1-10-13.16-9.67C379.21,46.06,377.79,46,376.38,46Z"/><path class="cls-2" d="M810.74,114.49c-10.81,8.46-21.56,12.3-34,8.22a34.68,34.68,0,0,1-23.61-31.88c-.46-11.56.56-22.46,8.43-31.82,9.41-11.18,30.55-18,48.34-2.42,1.9-6.39,9.37-10.16,15.73-8.23,4.31,1.3,4.39,4.43,4.38,8-.06,19.48,0,39,0,58.44,0,4,.56,8.73-5.67,7.72C819.14,121.68,810.69,126.81,810.74,114.49ZM773.53,85.81c0,13,7.42,21.6,18.45,21.41,10.08-.18,18.92-9.9,19-20.94.13-12.29-7.8-21.28-19-21.51C780.1,64.53,773.54,72,773.53,85.81Z"/><path class="cls-2" d="M645.27,91.94c-7.07,0-14.16.1-21.23,0-5.59-.1-6.18,2.54-4.34,7,3.83,9.26,18.58,13.31,25.65,5.85,5.82-6.14,12.16-6,19.21-6,5.06,0,5.68,1.92,3.82,6.3-5.38,12.67-21.14,20.83-37.49,19.08-18-1.93-30.79-15.43-32.6-34.43-1.75-18.36,8.08-34.57,24.36-40.19,17.57-6.07,35.71.22,45.05,15.62a26.64,26.64,0,0,1,1.75,2.88c8.33,18.57,5,23.9-14.83,23.89ZM635.58,78.4c3.95,0,7.91-.16,11.85,0,4.74.24,5-1.83,3.73-5.66-2-6-7.21-7.9-12.25-9.23-6.52-1.71-12.21,1.2-16.81,5.76-1.91,1.9-4.05,4.54-2.71,7.45s4.51,1.44,6.89,1.59C629.37,78.56,632.48,78.4,635.58,78.4Z"/><path class="cls-2" d="M464.37,47.76c21.73.07,38.11,16.24,38.38,37.9.27,21.41-17.64,38.65-39.87,38.58-21.5-.06-38-16.22-38-37.37C424.9,63,441.11,47.16,464.37,47.76Zm18,38.62c.21-12.61-7.28-21.28-18.7-21.63-10.85-.34-18.3,7.78-18.74,20.41s7.14,21.92,18.06,22.09C474.35,107.42,482.17,99,482.39,86.38Z"/><path class="cls-2" d="M514.83,86.07c0-10.19.12-20.37-.05-30.56-.07-4.18,1.31-7.09,5.73-5.95,5,1.28,12-4.48,15.12,4.55.9,2.62,3-.85,4.41-1.7,14.67-9.09,33.71-4.69,42.27,9.6a27.6,27.6,0,0,1,3.44,13c.73,14.39.92,28.86.25,43.25-.35,7.71-7.4,3.51-11.47,4.26s-7.22,0-7.1-5.5q.39-16.55,0-33.11c-.32-13.21-6.06-19.34-17.34-19.17-9.52.14-14.78,5.08-14.94,14.6-.2,11.88-.58,23.8.11,35.64.53,8.92-5,7.65-10.33,7.66s-10.94,1.22-10.28-7.68C515.37,105.35,514.82,95.69,514.83,86.07Z"/><path class="cls-2" d="M875.07,47.75c15,0,25.58,6.67,29,17.57,1.61,5.12.77,8.15-5.63,8-5.7-.17-11.25.62-14.44-6-1.33-2.77-4.85-3.83-8.06-4.08-4.75-.36-10,0-11.08,5.44-1.07,5.13,3.64,7,7.76,8.28,4.84,1.56,9.76,2.86,14.58,4.47,12.75,4.24,19.28,11.48,19.09,21-.2,9.94-8.48,18.27-21.14,21.29-14,3.34-30.51-2.2-37.25-12.4-2.48-3.75-5.23-7.87-2.2-12,2-2.69,16.66,0,18.36,3,3.54,6.1,9.07,7.25,15.35,6.57,3.8-.41,6.14-2.59,6.66-6.53s-1.87-5.67-5.1-6.66c-6.76-2.09-13.6-3.92-20.3-6.16C851.28,86.3,845.08,79,845.47,70.33s4.68-15.5,13.15-19.19C864.17,48.73,869.8,47.11,875.07,47.75Z"/><path class="cls-2" d="M678.93,121.7c4.39-10.36,11.37-18.93,17.52-27.86,4-5.89,4.15-10.17-.12-15.81-5.62-7.4-10.13-15.63-15.6-23.17-3.32-4.57-1.05-5.84,2.9-6.75,10-2.3,14.57-.13,21.33,9.94,9.29,13.85,9.29,13.85,17.23-1,4.73-8.85,10.48-11.48,20-9,6.54,1.7,3.19,5.31,1.32,8.22-5.34,8.29-10.63,16.63-16.46,24.56-2.88,3.91-2.66,6.61.09,10.42,6,8.22,11.42,16.8,17,25.28,2.38,3.6,2.62,5.4-3,6.3-12.51,2-19.65-3.92-24.59-14.2-3.29-6.86-6.47-7-9.75,0a15.58,15.58,0,0,1-.93,1.41C697.2,124.44,697.18,124.45,678.93,121.7Z"/><path class="cls-1" d="M140.09,211.33c-.06-12.37,7.65-19.88,20.36-19.85s21.19,7.81,20.61,19.78c-.56,11.6-7.9,20.41-21,20C148,230.86,140.14,223.26,140.09,211.33Z"/><path class="cls-1" d="M279.75,196.36c0,12.22-7.78,19.72-20.4,19.75-12.21,0-18.5-7.2-18.9-20.32-.36-12,7.82-19.41,19.09-20C268.66,175.22,281.85,184.12,279.75,196.36Z"/><path class="cls-2" d="M360.67,192.22c-10.78,0-21.26-9.44-21.09-18.95.19-10.67,10.28-20.18,21.3-20.08,10.75.1,20.74,9.49,20.76,19.52C381.67,184.29,373.12,192.25,360.67,192.22Zm.42-6.9c6.25-.22,12.12-5.93,12.16-11.82,0-7.23-5.58-12.32-13.25-12-6.2.27-12.13,6.24-11.78,11.87A12.79,12.79,0,0,0,361.09,185.32Z"/><path class="cls-2" d="M536.17,153.14c2.93-.42,5.83.78,8.71,1.94s2.42,3.58,1.93,5.77c-.58,2.63-2.73,2.43-4.75,2.06-.83-.15-1.59-.67-2.41-.79-3.8-.52-9.23-2.46-10.27,2.31-1.14,5.23,5.21,3.72,8.18,5,6,2.52,13.49,4.12,12.46,12.43s-8.14,11.22-15.57,11.57c-4,.19-8.23-1.54-12.23-2.76-2.15-.66-4.46-2.07-3-4.95,1.19-2.38,3-3.94,6.17-2.74s6.23,2.74,9.79,2.38c2.43-.25,4.61-1,4.84-3.74s-2.13-2.81-4-3.24c-1.37-.31-2.67-1-4-1.23-7.55-1.37-12.69-4.91-12-13.45C520.49,157.11,527,152.94,536.17,153.14Z"/><path class="cls-2" d="M623.79,182.59c0-2-.34-4,.05-5.91.92-4.4-2.53-12.6,2.39-12.55,7.84.08,16.67-6.43,24.29,2.43,4.84,5.63,5,11.54,3.21,17.26s-7.09,8.85-13.38,8.29c-5.25-.46-9.52-.92-8.26,6.63.49,2.93-2,3.6-4.52,3.53-3-.08-3.78-1.89-3.77-4.46Q623.81,190.19,623.79,182.59Zm22.16-5c.21-4.35-1-7.49-5.83-7.47-5.08,0-7.82,2.67-7.78,7.73,0,4.62,2.55,7.48,7.22,7.35S646.5,182.13,646,177.56Z"/><path class="cls-2" d="M562.73,164c6.42-1.61,12.84-3.43,17.3,2.68,5.14,7,2.49,15.25,2.51,23,0,2.07-2.08,2.43-3.86,2.18-2.1-.29-2.57-1.92-2.64-3.72-.19-4.48.12-8.95-1.35-13.38-1.2-3.64-3.33-4.93-6.92-4.67s-4.81,2.9-5.12,5.74c-.42,3.91-.24,7.88-.27,11.83,0,2.6-.89,4.31-3.87,4.41-3.29.12-4.56-1.47-4.55-4.59,0-9.59,0-19.19,0-28.78,0-3.15-.17-6.89,4.18-6.93s4.19,3.69,4.26,6.85C562.45,160.3,562.6,162,562.73,164Z"/><path class="cls-2" d="M496.1,181.44c3.85,4.74,7.73,4.53,11.81,2.27,2.57-1.42,4.29-.47,5.69,1.66,1.5,2.29,0,3.54-1.7,4.79-6.26,4.53-19,1.94-23.3-4.75a14.94,14.94,0,0,1,5.24-21c8.22-4.62,17.3-1.87,21.28,6.44,3.16,6.6,1.56,9.18-5.66,9.5C505.33,180.5,501.1,179.45,496.1,181.44Zm10.62-8.66c-5.14-5.6-5.41-5.6-9.57.1C500.37,173.74,503.48,174.08,506.72,172.78Z"/><path class="cls-2" d="M603.63,192.25c-10,.09-14.9-5.09-15.8-14.7C587,168.4,596,162,604.08,161.72c7.34-.23,16.07,8.57,16.14,15.89C620.29,185.41,612.65,192.16,603.63,192.25Zm6.58-16.17c.26-3.53-1.64-6.13-6.32-6s-7.29,2.79-7.33,7.44,2.35,7.75,7.07,7.57S610.22,181.52,610.21,176.08Z"/><path class="cls-2" d="M451.84,177.22c0-2.55.1-5.09,0-7.63-.29-6.23,1.85-9.36,8.57-7,.79.28,1.77.73,2.44.49,6.09-2.15,12.07-2.33,16.21,3.21,4.95,6.6,3.11,14.62,3.18,22.16,0,3-2,3.69-4.58,3.6-2.41-.07-3.68-1.23-3.72-3.62-.07-3.39-.09-6.78-.09-10.17,0-4.56-1.81-7.89-6.72-8s-5.9,3.86-6.58,7.47c-.51,2.74-.17,5.63-.22,8.46s.31,5.85-4,5.94c-4.1.1-4.5-2.46-4.45-5.56S451.85,180.32,451.84,177.22Z"/><path class="cls-2" d="M387,177.46c0-2.54.12-5.08,0-7.61-.28-4.92,1-7.91,6.75-6a2.55,2.55,0,0,0,1.62.13c6.21-2.64,12.31-3,17,2.56,5.42,6.48,3.41,14.5,3.53,22,0,2.45-1.55,3.4-3.86,3.47-2.7.08-4.37-.94-4.4-3.83,0-3.67-.09-7.34-.05-11s-.67-6.85-5.25-7.13-7.7,1.9-8.2,6.58c-.39,3.63-.12,7.33-.18,11,0,2.08-.37,4-3,4.23-3.08.21-3.85-1.72-3.85-4.29,0-3.38,0-6.77,0-10.16Z"/><path class="cls-2" d="M429.63,171.92c0,5.36,0,10.71,0,16.07,0,2.2-.7,3.87-3.31,3.94s-3.51-1.48-3.51-3.74q0-16.49,0-33c0-2.34,1.23-3.68,3.72-3.51,2.64.18,3.1,2,3.11,4.15Q429.66,163.88,429.63,171.92Z"/><path class="cls-2" d="M445,177.78c0,3.35,0,6.7,0,10.05,0,2.13-.5,3.93-3.1,4.1s-3.71-1.08-3.73-3.43q-.08-10.91,0-21.8a3,3,0,0,1,3.05-3.27c2.46-.18,3.67,1.12,3.72,3.45.07,3.63,0,7.26,0,10.9Z"/><path class="cls-2" d="M441.14,150.26a5,5,0,0,1,4.86,4c.53,2.56-1.54,4.43-3.72,4.91-3,.65-4.91-1.55-5.24-4.19S439,151.17,441.14,150.26Z"/></g></g></svg>